<svg xmlns="http://www.w3.org/2000/svg" width="1200" height="800" viewBox="0 0 1200 800" role="img" aria-label="Coaching template mockup">
  <rect width="1200" height="800" fill="#0e1933"/>
  <rect x="80" y="60" width="1040" height="680" rx="16" fill="#ffffff"/>
  <rect x="120" y="100" width="960" height="120" rx="8" fill="#eaf2ff"/>
  <rect x="160" y="140" width="520" height="40" rx="6" fill="#1f6feb"/>
  <rect x="160" y="210" width="320" height="20" rx="4" fill="#8aa9ff"/>
  <rect x="160" y="250" width="260" height="20" rx="4" fill="#c6d8ff"/>
  <rect x="120" y="260" width="960" height="420" rx="8" fill="#f7f9fe"/>
  <rect x="160" y="300" width="320" height="220" rx="10" fill="#ffe6f2"/>
  <rect x="520" y="300" width="480" height="40" rx="6" fill="#223354"/>
  <rect x="520" y="350" width="460" height="16" rx="4" fill="#6b7ea8"/>
  <rect x="520" y="380" width="440" height="16" rx="4" fill="#a1b1cf"/>
  <rect x="520" y="410" width="420" height="16" rx="4" fill="#d3ddf0"/>
  <rect x="520" y="470" width="220" height="44" rx="8" fill="#1f6feb"/>
  <rect x="760" y="470" width="220" height="44" rx="8" fill="#e0e7ff"/>
  <text x="160" y="340" font-size="28" font-family="Arial, sans-serif" fill="#223354">Coach profiel</text>
  <text x="520" y="335" font-size="26" font-family="Arial, sans-serif" fill="#ffffff">Plan een sessie</text>
  <text x="520" y="500" font-size="18" font-family="Arial, sans-serif" fill="#223354">Gratis intake • Resultaatgericht • Persoonlijk</text>
</svg>