<svg xmlns="http://www.w3.org/2000/svg" width="1200" height="800" aria-label="Coaching template mockup" role="img" viewBox="0 0 1200 800"><rect width="1200" height="800" fill="#0e1933"/><rect width="1040" height="680" x="80" y="60" fill="#fff" rx="16"/><rect width="960" height="120" x="120" y="100" fill="#eaf2ff" rx="8"/><rect width="520" height="40" x="160" y="140" fill="#1f6feb" rx="6"/><rect width="320" height="20" x="160" y="210" fill="#8aa9ff" rx="4"/><rect width="260" height="20" x="160" y="250" fill="#c6d8ff" rx="4"/><rect width="960" height="420" x="120" y="260" fill="#f7f9fe" rx="8"/><rect width="320" height="220" x="160" y="300" fill="#ffe6f2" rx="10"/><rect width="480" height="40" x="520" y="300" fill="#223354" rx="6"/><rect width="460" height="16" x="520" y="350" fill="#6b7ea8" rx="4"/><rect width="440" height="16" x="520" y="380" fill="#a1b1cf" rx="4"/><rect width="420" height="16" x="520" y="410" fill="#d3ddf0" rx="4"/><rect width="220" height="44" x="520" y="470" fill="#1f6feb" rx="8"/><rect width="220" height="44" x="760" y="470" fill="#e0e7ff" rx="8"/><text x="160" y="340" fill="#223354" font-family="Arial, sans-serif" font-size="28">Coach profiel</text><text x="520" y="335" fill="#fff" font-family="Arial, sans-serif" font-size="26">Plan een sessie</text><text x="520" y="500" fill="#223354" font-family="Arial, sans-serif" font-size="18">Gratis intake • Resultaatgericht • Persoonlijk</text></svg>