<svg xmlns="http://www.w3.org/2000/svg" width="1200" height="800" aria-label="E-commerce template mockup" role="img" viewBox="0 0 1200 800"><rect width="1200" height="800" fill="#101828"/><rect width="1040" height="680" x="80" y="60" fill="#fff" rx="16"/><rect width="960" height="160" x="120" y="100" fill="#fff7ed" rx="10"/><rect width="320" height="40" x="160" y="140" fill="#f97316" rx="8"/><rect width="260" height="16" x="160" y="200" fill="#fdba74" rx="4"/><rect width="960" height="420" x="120" y="280" fill="#f8fafc" rx="10"/><rect width="200" height="200" x="160" y="320" fill="#fee2e2" rx="12"/><rect width="200" height="200" x="380" y="320" fill="#e2e8f0" rx="12"/><rect width="200" height="200" x="600" y="320" fill="#e2e8f0" rx="12"/><rect width="200" height="200" x="820" y="320" fill="#e2e8f0" rx="12"/><rect width="160" height="18" x="160" y="540" fill="#1f2937" rx="6"/><rect width="160" height="18" x="380" y="540" fill="#1f2937" rx="6"/><rect width="160" height="18" x="600" y="540" fill="#1f2937" rx="6"/><rect width="160" height="18" x="820" y="540" fill="#1f2937" rx="6"/><text x="175" y="165" fill="#7c2d12" font-family="Arial, sans-serif" font-size="24">Actie! Producten met korting</text><text x="175" y="575" fill="#111827" font-family="Arial, sans-serif" font-size="18">Productnaam • Prijs • CTA</text></svg>